<?xml version="1.0" encoding="UTF-8"?>
<svg id="Layer_1" data-name="Layer 1" xmlns="http://www.w3.org/2000/svg" viewBox="0 0 567.01 492.18">
  <defs>
    <style>
      .cls-1 {
        fill: #e6ae38;
      }

      .cls-2 {
        fill: #2a6f97;
      }
    </style>
  </defs>
  <path class="cls-2" d="M1.01,3.46c0-.25-1.18-.8-.58-1.51L3.47.92c56.36,2.34,115-2.95,171.09,0,55.15,2.91,103.39,29.04,135.27,73.73,78.44,109.94,7.42,255.59-122.33,272.3l-186.98.02c-1.4-.17.5-1.28.5-1.5C1.01,231.47,1.41,117.46,1.01,3.46ZM77.01,73.96v154c31.16-4.1,54.56-28.74,74.96-50.5l-24.47-26.5c-.83-1.31-.83-2.69.52-3.49,30.07-9.36,60.89-16.4,91.98-21.5l-23.01,99.98c-3.62,2.53-15.37-15.67-17.9-18.35-.79-.84-.68-.92-2.06-.63-21.6,33.88-59.92,61.31-99.01,71l3.48.99c1.87.53,5.35-.33,7.34-.32,3.39.03,6.77.05,10.16.09,6.77.06,13.54.14,20.31.22,10.36.13,20.72.29,31.08.48,4.89.09,9.62.01,14.48-.28s9.66-1.45,14.37-1.45c121.55-17.91,118.84-191.41-1.74-203.72h-100.49Z"/>
  <path class="cls-1" d="M449.66,300.61c-45.41,44.79-113.64-24.86-66.69-69.19,44.83-42.32,110.83,25.65,66.69,69.19Z"/>
  <path class="cls-2" d="M161.79,380.24c70.03-7.99,93.12,80.98,32.9,106.9-52.4,22.55-105.19-35.14-72.08-83.08,8.45-12.24,24.32-22.12,39.19-23.81ZM171.68,400.35c-34.01-.62-47.6,46.16-19.2,64.64,19.65,12.78,43.97,2.51,50.82-19.22s-9.31-45.02-31.63-45.42Z"/>
  <path class="cls-2" d="M311.02,452.44v-1.47c26.1-8.77,27.65-45.55,6.9-61.42-5.96-4.56-16.03-7.86-23.41-8.59-15.31-1.52-32.94,1.13-48.5,0v108.5c0,.11,1.39,1.5,1.5,1.5h21c.11,0,1.5-1.39,1.5-1.5v-35.5c3.84.46,8.84-.67,12.48.02,7.43,1.42,18.65,31.2,25.02,36.98h25.5l-21.99-38.52ZM303.74,429.14c-1.01,1.1-2.24,1.96-3.48,2.78-1.16.77-2.38,1.78-3.79,2.01-1.17.19-2.39-.03-3.57,0s-2.46,0-3.69,0h-19.19v-31.98h22.5c8.17,0,15.58,8.44,15.58,16.5,0,3.93-1.7,7.81-4.35,10.68Z"/>
  <path class="cls-2" d="M2.01,380.96c.09-4.65,22.67-1.68,25.23-1.43,5.63.56,11.26,1.28,16.84,2.24,15.54,2.66,31.88,7.26,42.1,19.92,8.51,10.53,13.1,24.36,12.4,37.89-.14,2.69-.49,5.37-1.06,8.01-.18.82-.38,1.63-.6,2.44-1.04,3.8-2.52,7.49-4.37,10.97-18.57,34.81-56.71,29.93-90.54,29.96,0,0,0-109.98,0-110ZM25.01,468.96s20.5,0,20.5,0c23.58,0,37.74-32.6,25.62-51.4-6.71-10.41-20.34-14.95-32.22-14.8-1.05.01-13.89-.14-13.89.21v66Z"/>
  <path class="cls-2" d="M455.01,490.96h-24.5c-3.82-4.45-4.64-15.35-7.59-19.41-1.13-1.56-1.61-1.44-3.36-1.64-12.53-1.44-28.03,1.05-40.89.22-3.27,1.11-7.16,20.84-10.16,20.84h-23.5c11.84-36.4,26.46-71.95,39.56-107.94.63-1.32,1.59-1.77,2.96-2.04,2.63-.51,23.83-.32,25.48.47,1.21.58,1.97,2.31,2.48,3.52,13.13,35.32,27.34,70.43,39.51,105.99ZM415.01,448.96c-4.31-11.02-8.25-25.46-13.8-35.7-.36-.66-1.53-2.79-2.19-2.3l-15.01,38h31Z"/>
  <path class="cls-2" d="M495.01,380.96v48c5.79-5.27,11.29-11.17,16.51-16.99,3.57-3.97,24.93-31.01,26.99-31.01h26.5l-43.04,51.5,45.04,58.5h-27.5l-37.49-46.53c-.76-.57-7.01,5.56-7.01,6.03v40.5h-24v-110h24Z"/>
</svg>