<svg height="32px" width="32px" version="1.1" id="Layer_1" xmlns="http://www.w3.org/2000/svg" xmlns:xlink="http://www.w3.org/1999/xlink" x="0px" y="0px"
	viewBox="0 0 100 100" enable-background="new 0 0 1024 272" xml:space="preserve">
<path fill="#2a6f97" opacity="1.000000" stroke="none" 
	d="
M412.829102,184.119324 
	C414.736237,186.595230 412.756439,187.770798 411.562927,188.936508 
	C390.484894,209.523636 365.717285,217.209259 337.448883,207.591064 
	C309.867767,198.206711 294.391113,178.073135 290.625061,149.094437 
	C288.606018,133.558609 291.699951,119.040932 299.114075,105.304276 
	C301.000244,101.809654 302.768951,101.043732 305.916168,103.889191 
	C309.369019,107.010979 313.029968,109.922401 316.762238,112.708450 
	C319.258850,114.572144 319.310791,116.368454 318.094788,119.106812 
	C309.527405,138.400085 311.857758,156.396378 325.129944,172.829102 
	C337.463501,188.099716 361.181458,192.979050 379.104340,183.734070 
	C374.483429,172.603073 369.834503,161.404541 365.185547,150.205994 
	C365.632904,149.876862 366.080261,149.547745 366.527618,149.218613 
	C381.878723,160.770294 397.229828,172.321976 412.829102,184.119324 
z"/>
      <path
        fill="#2a6f97"
        opacity="1.000000"
        stroke="none"
        d=" M423.547943,111.602829   C432.906464,135.090622 431.197388,157.327942 418.323792,179.791885   C412.212921,175.112091 406.677704,170.956161 401.242371,166.673447   C398.767914,164.723709 400.803925,162.755493 401.583893,160.887711   C408.380066,144.612625 408.065735,128.703629 398.531860,113.595215   C387.616394,96.297401 366.120422,88.405380 346.595123,94.631065   C342.090729,96.067299 339.988892,95.342117 338.219543,91.099197   C336.191925,86.236931 333.578278,81.619057 331.232178,76.920975   C356.625397,63.709171 404.099518,68.065552 423.547943,111.602829  z"
      />
      <path
        fill="#2a6f97"
        opacity="1.000000"
        stroke="none"
        d=" M329.211365,94.804581   C337.160095,103.585182 344.873840,112.099731 352.587616,120.614281   C352.264221,120.991287 351.940826,121.368294 351.617432,121.745300   C333.490631,109.769188 315.363861,97.793083 296.959747,85.633759   C299.078552,82.876099 301.854706,84.239075 304.004333,83.517830   C313.610779,80.294708 320.955353,83.074753 326.316406,91.576210   C327.014252,92.682747 328.080688,93.556801 329.211365,94.804581  z"
      />
</svg>