<svg xmlns="http://www.w3.org/2000/svg" width="100" height="100" viewBox="0 0 100 100">
  <style>
    .st0{fill:#61A5C2;}
    .st1{fill:#012A4A;}
    .st2{fill:#ECF0F1;}
  </style>
  <circle class="st2" cx="50" cy="50" r="45"/>
  <path class="st0" d="M50,10c22.1,0,40,17.9,40,40S72.1,90,50,90S10,72.1,10,50S27.9,10,50,10z M50,80c16.6,0,30-13.4,30-30S66.6,20,50,20S20,33.4,20,50S33.4,80,50,80z"/>
  <path class="st1" d="M50,30c-11,0-20,9-20,20s9,20,20,20s20-9,20-20S61,30,50,30z M50,65c-8.3,0-15-6.7-15-15s6.7-15,15-15s15,6.7,15,15S58.3,65,50,65z"/>
  <path class="st1" d="M50,40v20 M40,50h20" stroke="#012A4A" stroke-width="4"/>
  <path class="st0" d="M25,25l5,5 M70,25l5,5 M25,75l5-5 M70,75l5-5" stroke="#61A5C2" stroke-width="2"/>
</svg>